<svg width="64" height="42" viewBox="0 0 64 42" fill="none" xmlns="http://www.w3.org/2000/svg">
<path d="M0 0.947266V40.3142H19.0811C20.8445 40.3142 22.5685 40.0923 24.2269 39.6529C25.9037 39.2118 27.4016 38.5321 28.7048 37.6099C29.9981 36.695 31.0472 35.5086 31.8187 34.0449C32.5819 32.5995 32.9637 30.8795 32.9637 28.8838C32.9637 26.4219 32.3797 24.3214 31.1837 22.5665C29.9944 20.8219 28.2005 19.5961 25.7773 18.9009C27.5571 18.0579 28.8861 16.9737 29.7933 15.6537C30.6923 14.3291 31.1421 12.6739 31.1421 10.6918C31.1421 8.859 30.8416 7.31127 30.2421 6.07367C29.6272 4.81793 28.7701 3.8198 27.6736 3.0694C26.56 2.3206 25.2416 1.7742 23.6971 1.44673C22.1432 1.11046 20.4437 0.947533 18.56 0.947533L0 0.947266ZM41.7797 3.58806V7.4726H57.7381V3.58806H41.7797ZM8.66907 7.65206H16.7776C17.5437 7.65206 18.2931 7.70647 19.0067 7.847C19.7341 7.97127 20.3613 8.20433 20.916 8.539C21.4749 8.86033 21.9171 9.32033 22.252 9.90753C22.5741 10.495 22.7336 11.251 22.7336 12.1673C22.7336 13.8177 22.2507 15.0211 21.2533 15.7475C20.2459 16.4875 18.9752 16.8534 17.4389 16.8534H8.66907V7.65206ZM50.1224 11.0025C47.9384 11.0025 45.9659 11.3923 44.1773 12.1651C42.3893 12.9395 40.8539 13.9985 39.5592 15.3425C38.2669 16.6787 37.2832 18.2721 36.5725 20.1182C35.876 21.9582 35.5213 23.9491 35.5213 26.0809C35.5213 28.2857 35.8637 30.3185 36.544 32.1571C37.232 34.0033 38.1968 35.5763 39.4389 36.9065C40.7136 38.231 42.2283 39.2489 44.0416 39.9723C45.8565 40.6897 47.8768 41.0518 50.1224 41.0518C53.3437 41.0518 56.108 40.3129 58.3755 38.8315C60.6685 37.3574 62.3493 34.9089 63.4576 31.4785H56.5643C56.2976 32.3603 55.6069 33.2091 54.4736 34.003C53.3283 34.7998 51.9624 35.2009 50.3829 35.2009C48.1875 35.2009 46.4928 34.6227 45.3203 33.4777C44.1437 32.3326 43.3824 30.2006 43.3824 27.9465H63.9504C64.0976 25.7355 63.9179 23.6217 63.4051 21.6006C62.8883 19.5737 62.0629 17.7699 60.9003 16.1899C59.7389 14.6083 58.2592 13.3454 56.4549 12.4126C54.6448 11.4678 52.5341 11.0025 50.1224 11.0025ZM49.8859 16.9145C51.8083 16.9145 53.3861 17.4723 54.3157 18.5022C55.2499 19.5395 55.9331 21.0174 56.12 23.0129H43.3824C43.4187 22.4569 43.5371 21.8278 43.7395 21.1342C43.9392 20.4227 44.2832 19.7571 44.7883 19.1262C45.2963 18.5059 45.9621 17.9769 46.7723 17.5539C47.6013 17.1251 48.6352 16.9147 49.8859 16.9147V16.9145ZM8.66933 22.7702H18.0917C19.9573 22.7702 21.4736 23.1974 22.6112 24.0598C23.7469 24.9345 24.3192 26.3758 24.3192 28.4043C24.3192 29.4403 24.1507 30.2961 23.8003 30.9553C23.4509 31.6206 22.972 32.1462 22.3923 32.5275C21.8131 32.9251 21.1248 33.1937 20.3493 33.3641C19.5861 33.5345 18.7747 33.6094 17.9187 33.6094H8.66907L8.66933 22.7702Z" fill="white"/>
</svg>
