<svg width="64" height="64" viewBox="0 0 64 64" fill="none" xmlns="http://www.w3.org/2000/svg">
<path d="M32 64C14.36 64 0 49.64 0 32C0 14.36 14.36 0 32 0C49.64 0 64 14.36 64 32C64 49.64 49.64 64 32 64ZM58.9867 36.3787C58.0533 36.0853 50.5333 33.8373 41.9627 35.2107C45.536 45.0347 46.9947 53.0347 47.2747 54.6987C53.408 50.552 57.7707 43.9787 58.9947 36.3787H58.9867ZM42.68 57.2C42.272 54.8 40.68 46.448 36.84 36.48L36.664 36.5333C21.224 41.9067 15.704 52.6 15.224 53.6C19.8373 57.2213 25.6773 59.376 31.9973 59.376C35.784 59.376 39.384 58.6027 42.664 57.2053L42.68 57.2ZM11.6933 50.32C12.312 49.2533 19.8133 36.84 33.912 32.28C34.272 32.16 34.632 32.056 34.992 31.96C34.2987 30.4 33.552 28.848 32.7733 27.32C19.12 31.4 5.88267 31.2267 4.68267 31.2L4.672 32.032C4.672 39.0533 7.33333 45.464 11.696 50.312L11.6933 50.32ZM5.24 26.44C6.46667 26.4613 17.728 26.5093 30.512 23.112C25.984 15.064 21.0987 8.29067 20.3787 7.304C12.7307 10.904 7.01867 17.944 5.24267 26.424L5.24 26.44ZM25.6 5.472C26.352 6.48533 31.32 13.2427 35.792 21.472C45.512 17.832 49.632 12.2987 50.12 11.6C45.2933 7.30667 38.9467 4.704 32 4.704C29.8 4.704 27.6533 4.97067 25.6 5.464V5.472ZM53.16 14.76C52.5787 15.5333 48 21.408 37.896 25.5333C38.536 26.84 39.1493 28.16 39.7093 29.496C39.9227 29.976 40.1093 30.456 40.296 30.9093C49.3893 29.7627 58.4293 31.6027 59.336 31.7893C59.2827 25.336 56.9893 19.416 53.176 14.776L53.16 14.76Z" fill="white"/>
</svg>
