<svg width="60" height="64" viewBox="0 0 60 64" fill="none" xmlns="http://www.w3.org/2000/svg">
<path d="M25.8532 56.992C25.8527 57.4943 25.7033 57.9852 25.424 58.4026C25.1447 58.8201 24.7479 59.1454 24.2838 59.3375C23.8197 59.5296 23.3091 59.5798 22.8164 59.4819C22.3238 59.384 21.8712 59.1423 21.5158 58.7873C21.1605 58.4323 20.9183 57.98 20.8198 57.4874C20.7214 56.9949 20.7711 56.4842 20.9627 56.0199C21.1543 55.5556 21.4792 55.1585 21.8964 54.8787C22.3136 54.5989 22.8043 54.4491 23.3066 54.448C24.7039 54.448 25.8426 55.5947 25.8426 56.9947L25.8532 56.992ZM41.6372 56.992C41.6367 57.4939 41.4875 57.9845 41.2085 58.4018C40.9296 58.819 40.5333 59.1444 40.0696 59.3367C39.606 59.529 39.0958 59.5797 38.6033 59.4824C38.1109 59.3852 37.6583 59.1442 37.3027 58.7901C36.947 58.4359 36.7042 57.9843 36.6048 57.4923C36.5055 57.0002 36.5541 56.4898 36.7444 56.0254C36.9348 55.561 37.2585 55.1633 37.6746 54.8826C38.0907 54.6019 38.5806 54.4506 39.0826 54.448C40.4852 54.448 41.6266 55.5947 41.6266 56.9947L41.6372 56.992ZM53.7439 32.568L53.3279 32.024C53.2052 31.864 53.0719 31.7147 52.9465 31.5573C52.8265 31.3973 52.6959 31.256 52.5705 31.1067C52.2932 30.7867 52.0105 30.4693 51.7172 30.1493L51.5172 29.936L51.2745 29.672L50.9145 29.3253C50.8745 29.2747 50.8292 29.232 50.7812 29.1813C47.7923 26.216 44.1933 23.9374 40.2346 22.504L39.6212 22.296L39.7146 22.0747C40.2556 20.6824 40.5064 19.1943 40.4514 17.7016C40.3963 16.2089 40.0367 14.7433 39.3946 13.3947C38.7606 12.0422 37.8568 10.8336 36.7388 9.84314C35.6208 8.85262 34.3122 8.10109 32.8932 7.63467C31.1439 7.05867 29.6132 6.784 28.3279 6.82133C28.2399 6.54133 28.0612 5.28267 29.6506 1.89333L26.4319 0L25.6666 1.064C24.7866 2.27733 23.9386 3.45067 23.1466 4.60533C22.2782 3.68443 21.0902 3.13098 19.8266 3.05867L16.1066 2.82933H16.0745C15.9865 2.82133 15.8879 2.82133 15.7972 2.82133C13.1572 2.82133 10.9706 4.87733 10.8106 7.50133L10.5759 11.24V11.248C10.5 12.5679 10.9496 13.8642 11.8266 14.8535C12.7035 15.8429 13.9364 16.4449 15.2559 16.528L17.9279 16.688C17.7546 18.928 18.1225 21.008 19.0079 22.8373C15.3493 24.3796 12.0322 26.6308 9.24788 29.4613C0.431885 38.3787 0.431885 48.1387 0.431885 55.9867V60.72L3.91188 57.0213C4.62122 59.5013 5.65055 61.84 6.96522 63.9947H11.4932C9.22864 60.9654 7.69535 57.4535 7.01322 53.7333L12.1146 48.32L9.48788 56.56L14.1279 53.1813C22.3279 47.224 32.1145 45.848 43.2212 49.1013C48.0372 50.5227 52.7145 49.208 55.1519 45.752L55.4292 45.312C55.6692 46.64 55.8025 47.9733 55.8025 49.3013C55.8025 53.4693 55.1252 59.1333 52.1225 64H56.4212C58.4905 59.832 59.5705 54.848 59.5705 49.3013C59.5679 43.4347 57.4745 37.512 53.7465 32.5707L53.7439 32.568ZM21.7172 16.512C22.0425 13.84 23.2559 11.3147 24.9972 8.592C25.3124 9.22085 25.8036 9.74448 26.4111 10.0991C27.0185 10.4537 27.716 10.6241 28.4185 10.5893C28.9945 10.568 30.0292 10.656 31.7066 11.208C32.6429 11.5151 33.5064 12.0106 34.2439 12.6642C34.9813 13.3177 35.5771 14.1154 35.9945 15.008C36.8532 16.824 36.9252 18.8533 36.2052 20.7413C35.7558 21.8952 35.0153 22.9131 34.0559 23.696L32.9679 22.3573L32.9626 22.3493C32.3049 21.5509 31.358 21.0453 30.3286 20.9429C29.2993 20.8404 28.2713 21.1495 27.4692 21.8027C26.5786 22.5227 26.0986 23.5627 26.0452 24.624C22.8452 23.184 21.2452 20.2427 21.7039 16.5173L21.7172 16.512ZM33.1945 30.1387L31.8079 31.272C31.746 31.3235 31.6744 31.3621 31.5974 31.3857C31.5204 31.4093 31.4395 31.4173 31.3594 31.4094C31.2792 31.4015 31.2015 31.3777 31.1306 31.3395C31.0597 31.3012 30.9972 31.2493 30.9465 31.1867L30.6532 30.8267C30.5475 30.6964 30.4978 30.5295 30.5148 30.3626C30.5317 30.1957 30.6141 30.0423 30.7439 29.936L32.1039 28.816L29.2879 25.352C29.2183 25.2684 29.166 25.1717 29.1342 25.0677C29.1024 24.9636 29.0916 24.8543 29.1026 24.746C29.1135 24.6378 29.1459 24.5328 29.1978 24.4372C29.2498 24.3416 29.3203 24.2574 29.4052 24.1893C29.4876 24.1183 29.5836 24.0647 29.6872 24.0316C29.7909 23.9985 29.9002 23.9868 30.0085 23.997C30.1168 24.0072 30.222 24.0392 30.3176 24.091C30.4133 24.1429 30.4975 24.2135 30.5652 24.2987L38.4665 34.0213C38.5567 34.1295 38.6177 34.2589 38.6436 34.3973C38.6695 34.5357 38.6595 34.6785 38.6146 34.8119C38.5697 34.9454 38.4913 35.0651 38.3869 35.1596C38.2826 35.2542 38.1558 35.3204 38.0186 35.352C37.8686 35.3859 37.7122 35.3779 37.5664 35.329C37.4206 35.2801 37.2911 35.1921 37.1919 35.0747L36.4052 34.1013L33.6185 36.3787C33.5026 36.4733 33.3576 36.5251 33.2079 36.5253C33.1125 36.5254 33.0183 36.5038 32.9324 36.4622C32.8464 36.4207 32.7711 36.3602 32.7119 36.2853L31.4399 34.7387C31.335 34.6073 31.2861 34.44 31.3035 34.2729C31.321 34.1057 31.4035 33.9522 31.5332 33.8453L34.3332 31.5573L33.1999 30.136L33.1945 30.1387ZM18.6719 12.976L15.4826 12.776C15.1563 12.7567 14.8511 12.609 14.6336 12.365C14.4162 12.1211 14.3043 11.8009 14.3225 11.4747L14.5625 7.74133C14.5796 7.42674 14.7165 7.13063 14.9452 6.91388C15.1738 6.69713 15.4768 6.57622 15.7919 6.576H15.8559L19.5919 6.81867C19.7534 6.82749 19.9116 6.86825 20.0573 6.9386C20.203 7.00894 20.3333 7.10747 20.4407 7.22848C20.548 7.34949 20.6304 7.49059 20.6829 7.64362C20.7354 7.79664 20.757 7.95856 20.7465 8.12L20.7279 8.38933C19.8866 9.84418 19.196 11.381 18.6665 12.976H18.6719ZM52.0719 43.5947C50.5652 45.7413 47.5732 46.4747 44.2745 45.5093C33.9119 42.4667 24.5492 43.1013 16.3572 47.376L20.7199 33.7173L6.61322 48.6747C6.87455 38.6427 13.1519 30.096 21.9652 26.5093C23.2212 27.504 24.7225 28.2693 26.4265 28.752C26.8532 28.8693 27.2852 28.9493 27.7066 29.024C27.4584 29.6433 27.3795 30.3174 27.4779 30.9772C27.5763 31.637 27.8485 32.2588 28.2666 32.7787L28.4666 33.0187C28.0079 34.2187 28.1866 35.6187 29.0559 36.6827L30.3252 38.2347C30.673 38.6623 31.1117 39.0069 31.6094 39.2436C32.1072 39.4802 32.6514 39.6029 33.2025 39.6027C34.0559 39.6027 34.8959 39.3067 35.5652 38.7653L36.3252 38.1467C36.7892 38.344 37.3039 38.448 37.8345 38.448C38.7355 38.4554 39.6108 38.1479 40.3092 37.5787C41.9706 36.2187 42.2292 33.752 40.8666 32.0853L36.4132 26.6C36.7986 26.2875 37.1621 25.9489 37.5012 25.5867C37.8612 25.6827 38.2212 25.792 38.5679 25.9067C39.2772 26.1627 39.9892 26.432 40.6879 26.744C43.4295 27.9808 45.9304 29.6935 48.0745 31.8027C48.1545 31.8827 48.2345 31.9493 48.3039 32.024L48.7572 32.4933C48.8585 32.5973 48.9599 32.704 49.0505 32.8133C49.2639 33.04 49.4772 33.28 49.6905 33.5253L50.0265 33.9253C50.1465 34.0667 50.2559 34.2027 50.3732 34.352L50.6772 34.752C50.7839 34.8853 50.8879 35.024 50.9892 35.1627C53.2239 38.2267 53.6212 41.3733 52.0665 43.5813V43.5947H52.0719ZM18.5812 10.9733L16.3545 10.84L16.4959 8.61067L18.7199 8.74667L18.5812 10.9733Z" fill="white"/>
</svg>
