<svg width="64" height="64" viewBox="0 0 64 64" fill="none" xmlns="http://www.w3.org/2000/svg">
<path d="M32 0C14.3253 0 0 14.3253 0 32C0 49.6747 14.3253 64 32 64C49.6747 64 64 49.6747 64 32C64 14.3253 49.6747 0 32 0ZM19.6507 11.6747C21.0507 11.6747 22.176 12.824 22.176 14.2C22.176 15.576 21.0507 16.7253 19.6507 16.7253C18.9816 16.7232 18.3405 16.4565 17.8673 15.9834C17.3942 15.5102 17.1274 14.8691 17.1253 14.2C17.1253 12.8 18.2507 11.6747 19.6507 11.6747ZM17.7253 19.776H21.576V46.552H17.7253V19.776ZM27.224 19.776H37.624C47.5227 19.776 51.8747 26.8507 51.8747 33.176C51.8747 40.0507 46.4987 46.576 37.6747 46.576H27.224V19.776ZM31.0747 23.2507V43.1013H37.2C45.9253 43.1013 47.9253 36.4773 47.9253 33.176C47.9253 27.8 44.5013 23.2507 37 23.2507H31.0747Z" fill="white"/>
</svg>
