<svg width="64" height="64" viewBox="0 0 64 64" fill="none" xmlns="http://www.w3.org/2000/svg">
<path d="M32 0C23.5131 0 15.3737 3.37142 9.37258 9.37258C3.37142 15.3737 0 23.5131 0 32C0 40.4869 3.37142 48.6263 9.37258 54.6274C15.3737 60.6286 23.5131 64 32 64C40.4869 64 48.6263 60.6286 54.6274 54.6274C60.6286 48.6263 64 40.4869 64 32C64 23.5131 60.6286 15.3737 54.6274 9.37258C48.6263 3.37142 40.4869 0 32 0V0ZM45.36 12.6507C47.1947 12.6507 48.6933 14.1467 48.6933 15.9813C48.6841 16.8462 48.339 17.6736 47.731 18.2888C47.1229 18.904 46.2996 19.2587 45.4349 19.2781C44.5702 19.2975 43.7318 18.98 43.0968 18.3927C42.4618 17.8054 42.08 16.9943 42.032 16.1307L35.1067 14.672L32.9733 24.664C37.8373 24.8507 42.2533 26.3493 45.4373 28.632C46.2587 27.808 47.384 27.3227 48.656 27.3227C51.2373 27.3227 53.3333 29.4187 53.3333 32C53.3333 33.9093 52.1733 35.5547 50.64 36.304C50.7161 36.7623 50.7536 37.2261 50.752 37.6907C50.752 44.8747 42.4053 50.6773 32.0747 50.6773C21.744 50.6773 13.3973 44.8747 13.3973 37.6907C13.3973 37.2027 13.4373 36.7147 13.512 36.2667C12.6865 35.9003 11.9852 35.3021 11.4933 34.5446C11.0014 33.7872 10.7402 32.9031 10.7413 32C10.7413 29.4187 12.8373 27.3227 15.4187 27.3227C16.6533 27.3227 17.8133 27.8453 18.6373 28.6293C21.856 26.2747 26.312 24.816 31.288 24.664L33.648 13.512C33.7044 13.2973 33.8371 13.1105 34.0213 12.9867C34.2129 12.8752 34.4379 12.8355 34.656 12.8747L42.4053 14.52C42.6672 13.9583 43.0849 13.4835 43.6086 13.1522C44.1324 12.8208 44.7402 12.6467 45.36 12.6507ZM24.6667 32C22.8293 32 21.3333 33.4987 21.3333 35.3333C21.3333 37.1653 22.8293 38.6613 24.6667 38.6613C26.4987 38.6613 27.9947 37.1653 27.9947 35.3307C27.9947 33.496 26.4987 32 24.664 32H24.6667ZM39.3333 32C37.5013 32 36.0053 33.496 36.0053 35.3333C36.0053 37.1653 37.5013 38.6613 39.336 38.6613C41.1707 38.6613 42.6667 37.1653 42.6667 35.3307C42.6667 33.4987 41.168 32 39.3333 32ZM24.7573 42.64C24.527 42.6389 24.3055 42.729 24.1413 42.8907C23.9793 43.0553 23.8885 43.277 23.8885 43.508C23.8885 43.739 23.9793 43.9607 24.1413 44.1253C26.3867 46.3707 30.7653 46.56 32.0373 46.56C33.3093 46.56 37.6507 46.4107 39.9333 44.1253C40.0892 43.9614 40.1824 43.7478 40.1966 43.5221C40.2107 43.2963 40.1449 43.0728 40.0107 42.8907C39.8459 42.7278 39.6236 42.6365 39.392 42.6365C39.1604 42.6365 38.9381 42.7278 38.7733 42.8907C37.3147 44.312 34.2827 44.8373 32.0747 44.8373C29.8667 44.8373 26.7973 44.3147 25.376 42.8907C25.2947 42.8097 25.1982 42.7456 25.092 42.7022C24.9858 42.6587 24.8721 42.6366 24.7573 42.6373V42.64Z" fill="white"/>
</svg>
