<svg width="64" height="64" viewBox="0 0 64 64" fill="none" xmlns="http://www.w3.org/2000/svg">
<path d="M32 0C14.4 0 0 14.4 0 32C0 49.6 14.4 64 32 64C49.6 64 64 49.6 64 32C64 14.4 49.76 0 32 0ZM46.7227 46.24C46.0827 47.1973 44.9627 47.52 44 46.88C36.48 42.24 27.04 41.2773 15.8373 43.8373C14.7227 44.1627 13.76 43.36 13.44 42.4C13.12 41.2773 13.92 40.32 14.88 40C27.04 37.2773 37.6 38.4 45.92 43.52C47.04 44 47.1973 45.2773 46.7227 46.24ZM50.5627 37.44C49.76 38.56 48.32 39.04 47.1973 38.24C38.56 32.96 25.44 31.36 15.36 34.56C14.0827 34.88 12.64 34.24 12.32 32.96C12 31.68 12.64 30.2373 13.92 29.9173C25.6 26.4 40 28.1627 49.92 34.24C50.8827 34.7227 51.36 36.32 50.5627 37.44ZM50.8827 28.48C40.64 22.4 23.52 21.76 13.76 24.8027C12.16 25.28 10.56 24.32 10.08 22.88C9.6 21.2773 10.56 19.68 12 19.1973C23.36 15.8373 42.08 16.4773 53.9227 23.52C55.36 24.32 55.84 26.24 55.04 27.68C54.2427 28.8027 52.32 29.2773 50.8827 28.48Z" fill="white"/>
</svg>
