<svg width="54" height="64" viewBox="0 0 54 64" fill="none" xmlns="http://www.w3.org/2000/svg">
<path d="M36.9334 0L32.3467 3.40533L49.3867 26.3067L53.9627 22.9013L36.9334 0ZM26.4267 9.11467L22.776 13.4987L44.7094 31.7653L48.36 27.3813L26.4267 9.11467ZM18.0267 21.0213L15.6134 26.1947L41.4854 38.24L43.896 33.0667L18.0267 21.0213ZM13.0934 33.9813L11.92 39.5627L39.848 45.432L41.0214 39.8533L13.0934 33.9787V33.9813ZM0.0400391 41.2533V64H51.2134V41.2533H45.5254V58.312H5.72271V41.256H0.0400391V41.2533ZM11.4134 46.9413V52.6213H39.84V46.9413H11.4107H11.4134Z" fill="white"/>
</svg>
