<svg width="64" height="64" viewBox="0 0 64 64" fill="none" xmlns="http://www.w3.org/2000/svg">
<path d="M31.9439 0C15.1413 0 1.36259 12.96 0.0585938 29.432L17.2106 36.52C18.6639 35.5307 20.4186 34.9467 22.3093 34.9467C22.4773 34.9467 22.6426 34.9573 22.8106 34.9627L30.4399 23.9173V23.76C30.4399 17.1067 35.8479 11.696 42.5039 11.696C49.1546 11.696 54.5679 17.112 54.5679 23.768C54.5679 30.424 49.1546 35.8347 42.5039 35.8347H42.2239L31.3546 43.5973C31.3546 43.736 31.3653 43.8773 31.3653 44.0213C31.3653 49.0213 27.3253 53.0773 22.3253 53.0773C17.9653 53.0773 14.2826 49.9493 13.4426 45.8053L1.16259 40.72C4.96526 54.152 17.2959 64 31.9439 64C49.6159 64 63.9413 49.672 63.9413 32C63.9413 14.328 49.6133 0 31.9439 0ZM20.1066 48.56L16.1786 46.9333C16.8773 48.3813 18.0826 49.5973 19.6826 50.2667C23.1413 51.704 27.1306 50.064 28.5679 46.6C29.2693 44.92 29.2719 43.0827 28.5813 41.4027C27.8906 39.7227 26.5813 38.4133 24.9093 37.7147C23.2453 37.0213 21.4693 37.0507 19.9013 37.6347L23.9626 39.3147C26.5119 40.3813 27.7199 43.3147 26.6533 45.8613C25.5946 48.4133 22.6613 49.6213 20.1093 48.56H20.1066ZM50.5466 23.752C50.5466 19.32 46.9386 15.712 42.5066 15.712C38.0666 15.712 34.4666 19.32 34.4666 23.752C34.4666 28.192 38.0666 31.792 42.5066 31.792C46.9413 31.792 50.5466 28.192 50.5466 23.752ZM36.4853 23.7387C36.4853 20.4 39.1866 17.696 42.5253 17.696C45.8559 17.696 48.5679 20.4 48.5679 23.7387C48.5679 27.0747 45.8559 29.7787 42.5253 29.7787C39.1839 29.7787 36.4853 27.0747 36.4853 23.7387Z" fill="white"/>
</svg>
