<svg width="64" height="64" viewBox="0 0 64 64" fill="none" xmlns="http://www.w3.org/2000/svg">
<path d="M31.8507 8.71112e-05C23.3896 0.0395723 15.2886 3.42842 9.31972 9.42531C3.35082 15.4222 -9.21308e-05 23.539 1.89983e-09 32.0001C1.89984e-09 40.487 3.37142 48.6263 9.37258 54.6275C15.3737 60.6287 23.5131 64.0001 32 64.0001C40.4869 64.0001 48.6263 60.6287 54.6274 54.6275C60.6286 48.6263 64 40.487 64 32.0001C64 23.5132 60.6286 15.3738 54.6274 9.37267C48.6263 3.37151 40.4869 8.71112e-05 32 8.71112e-05C31.9502 -2.90371e-05 31.9004 -2.90371e-05 31.8507 8.71112e-05V8.71112e-05ZM45.0827 19.2641C45.3493 19.2588 45.9387 19.3254 46.3227 19.6374C46.5778 19.859 46.7406 20.1683 46.7787 20.5041C46.8213 20.7521 46.8747 21.3201 46.832 21.7628C46.352 26.8241 44.2667 39.1014 43.2053 44.7681C42.7573 47.1681 41.8747 47.9708 41.0187 48.0481C39.1627 48.2214 37.752 46.8214 35.952 45.6428C33.136 43.7948 31.544 42.6454 28.8107 40.8428C25.6507 38.7628 27.6987 37.6161 29.4987 35.7494C29.9707 35.2588 38.1573 27.8108 38.3173 27.1361C38.336 27.0508 38.3547 26.7361 38.168 26.5708C37.9813 26.4054 37.704 26.4614 37.504 26.5068C37.2213 26.5708 32.7227 29.5468 24.008 35.4268C22.728 36.3068 21.5733 36.7334 20.536 36.7068C19.3947 36.6854 17.1973 36.0641 15.5627 35.5334C13.5573 34.8801 11.9653 34.5361 12.104 33.4294C12.176 32.8534 12.9707 32.2641 14.4853 31.6614C23.8133 27.5974 30.032 24.9174 33.1467 23.6241C42.032 19.9281 43.88 19.2854 45.0827 19.2641V19.2641Z" fill="white"/>
</svg>
