<svg width="64" height="54" viewBox="0 0 64 54" fill="none" xmlns="http://www.w3.org/2000/svg">
<path d="M63.8747 7.18625C61.4786 8.24119 58.9403 8.93755 56.3413 9.25291C59.0776 7.60825 61.1264 5.02903 62.1093 1.99158C59.5733 3.47158 56.7627 4.54891 53.7707 5.14891C51.7967 3.03806 49.181 1.63804 46.3297 1.16625C43.4785 0.694466 40.5512 1.17732 38.0025 2.53982C35.4538 3.90233 33.4263 6.06825 32.2348 8.70124C31.0433 11.3342 30.7546 14.287 31.4133 17.1009C20.5067 16.5862 10.8453 11.3462 4.37333 3.43158C3.19678 5.43108 2.5831 7.71165 2.59733 10.0316C2.59733 14.5916 4.91733 18.5996 8.432 20.9542C6.34896 20.8879 4.31192 20.3247 2.49067 19.3116V19.4716C2.48949 22.502 3.53672 25.4394 5.45468 27.7856C7.37265 30.1318 10.0432 31.7422 13.0133 32.3436C11.0888 32.8593 9.0731 32.9367 7.11467 32.5702C7.95766 35.1783 9.59377 37.4581 11.7947 39.0916C13.9956 40.7251 16.6516 41.6307 19.392 41.6822C14.7507 45.3248 9.01994 47.3017 3.12 47.2956C2.08 47.2956 1.04267 47.2342 0 47.1169C6.01522 50.9684 13.0094 53.0129 20.152 53.0076C44.2933 53.0076 57.48 33.0182 57.48 15.7142C57.48 15.1542 57.48 14.5942 57.44 14.0342C60.016 12.1805 62.2379 9.8791 64 7.23958L63.8747 7.18625Z" fill="white"/>
</svg>
