<svg width="200" height="290" viewBox="0 0 200 290" fill="none" xmlns="http://www.w3.org/2000/svg">
<path d="M185.91 250.688C165.251 317.876 142.297 278.023 19.1078 273.425C19.1078 268.827 18.0366 258.71 13.7518 255.031C8.39573 250.433 11.2013 269.593 2.27456 250.688C-6.65216 231.784 24.2088 258.608 26.5042 241.747C28.7997 224.886 11.2013 235.616 19.1078 226.164C27.0143 216.711 -4.10168 218.244 14.2619 213.901C32.6254 209.558 2.27456 203.938 29.0547 201.894C55.8349 199.85 54.3046 189.887 41.042 188.099C27.7795 186.311 15.7922 198.573 13.7518 176.092C11.7114 153.611 32.7482 174.559 33.1355 162.297C33.5229 150.034 15.2821 165.618 19.1078 127.809C22.9336 89.9997 46.9082 120.4 37.9815 120.4C29.0547 120.4 19.1078 171.238 37.9815 142.37C56.8551 113.503 6.86544 233.828 46.9082 162.297C86.9509 90.7661 19.1078 99.4519 11.2013 107.627C3.29476 115.802 11.2013 182.479 2.27456 131.896C-6.65216 81.3138 13.7518 56.789 11.2013 77.7372C8.65079 98.6855 37.9815 89.7442 44.3577 82.5911C50.7339 75.438 2.78466 77.7372 33.1355 70.3287C63.4864 62.9202 63.7414 80.8028 54.3046 99.4519C44.8678 118.101 115.772 67.774 74.1985 63.6866C32.6254 59.5991 -12.0082 33.5415 19.1078 23.5782C50.2238 13.615 35.9411 25.111 37.9815 38.9063C40.0219 52.7015 154.029 48.3585 165.506 38.9063C176.983 29.454 -37.5131 20.5127 96.6428 4.16275C230.799 -12.1872 201.723 25.622 185.91 15.1479C170.097 4.6737 93.0721 18.4689 159.13 20.5127C225.188 22.5564 188.716 211.346 172.392 193.464C156.069 175.581 185.91 12.5932 115.772 56.789C45.6329 100.985 103.019 228.718 128.269 193.464C153.519 158.209 163.466 90.5106 159.13 178.136C154.794 265.761 56.345 282.877 63.7414 246.09C71.1379 209.303 107.865 133.429 46.9082 211.346C-14.0486 289.264 170.862 281.043 159.13 263.462C147.398 245.881 206.569 183.501 185.91 250.688Z" fill="#6B6B6B"/>
</svg>
