<svg width="200" height="271" viewBox="0 0 200 271" fill="none" xmlns="http://www.w3.org/2000/svg">
<path d="M173.659 31.3664L11.2133 0C12.3481 3.18565 13.4019 10.9782 8.53827 16.6634C2.45871 23.7698 47.2043 31.3664 34.0725 41.9035C23.567 50.3332 14.4557 41.6585 11.2133 36.2674L27.5065 67.6337L14.6178 101.941L34.0725 123.015L14.6178 140.659L8.53827 164.918L27.5065 154.381C23.2103 154.381 16.0283 152.372 21.6701 144.334C27.312 136.297 34.3967 140.985 37.2338 144.334V161.488L50.6089 164.918L43.0702 150.706L55.7157 127.671C53.0407 132 46.7666 139.776 43.0702 136.248C38.4497 131.837 34.0725 90.6684 50.6089 84.2971C63.838 79.2001 75.8999 91.4852 80.2772 98.2649H50.6089C39.7143 98.2649 50.771 112.151 57.6612 119.094V107.332L86.5999 101.941C92.4363 98.1833 101.434 90.6684 90.734 90.6684C77.359 90.6684 34.0725 50.9703 64.2271 45.3342C94.3818 39.6981 98.2727 41.9035 86.5999 53.9109C77.2617 63.5169 120.808 78.1709 143.748 84.2971L109.702 78.661L119.186 98.2649L104.109 113.458H76.6294L64.2271 125.465C70.8741 126.037 85.4813 126.838 90.734 125.465C97.3 123.75 71.7658 126.691 86.5999 119.094C101.434 111.498 103.623 123.015 98.2727 129.631C92.9227 136.248 80.2772 129.631 64.2271 136.248C51.3871 141.541 54.4998 157.567 57.6612 164.918L64.2271 174.965V161.488L76.6294 164.918L86.5999 154.381L80.2772 144.334C82.3848 150.052 83.6331 160.066 71.7658 154.381C56.9316 147.275 74.1976 136.248 93.6522 136.248C113.107 136.248 77.6022 150.706 93.6522 150.706C106.492 150.706 109.702 146.458 109.702 144.334L103.623 132.082C105.811 127.753 111.988 117.281 119.186 110.027C126.385 102.774 129.481 113.05 130.13 119.094L119.186 123.015V129.631V136.248L113.593 144.334V150.706L104.109 154.381H101.191L98.2727 161.488L90.2477 164.918L83.1954 168.839L80.2772 174.965L68.6044 179.131L64.2271 183.542L57.6612 193.099V179.131L24.5883 168.839C33.2618 175.292 50.6089 189.816 50.6089 196.285C50.6089 202.754 41.6922 206.005 37.2338 206.822L21.6701 196.285H40.152C34.9641 189.178 20.6001 178.592 4.64735 193.099C-11.3054 207.606 17.6171 210.906 34.0725 210.743L4.64735 237.453L14.6178 254.607L18.9951 240.639L14.6178 237.453L104.109 164.918L21.6701 270.29H50.6089L37.2338 260.733L64.2271 246.52L57.6612 270.29L68.6044 257.302L83.1954 219.32L104.109 224.956L98.2727 232.062L90.2477 228.386L80.2772 244.56L93.6522 257.302L83.1954 254.607L86.5999 270.29L93.6522 265.389L104.109 257.302V265.389L143.748 270.29L161.743 260.733L157.366 246.52L133.291 257.302L90.2477 244.56L136.209 232.062L170.741 228.386L173.659 215.399H155.664L125.752 219.32L93.6522 215.399L113.593 206.822L93.6522 188.198C101.677 180.275 122.931 164.526 143.748 164.918C169.768 165.409 161.743 188.688 155.664 179.131C149.584 169.574 101.677 188.688 136.209 206.822C170.741 224.956 170.741 190.649 166.85 168.839C163.737 151.392 130.049 156.668 113.593 161.488L161.743 90.6684L170.741 107.332C149.26 118.931 119.186 144.579 170.741 154.381C222.296 164.183 194.168 111.743 173.659 84.2971L98.2727 53.9109H170.741L24.5883 16.6634L173.659 31.3664Z" fill="#6B6B6B"/>
</svg>
