<svg width="200" height="276" viewBox="0 0 200 276" fill="none" xmlns="http://www.w3.org/2000/svg">
<path d="M169.164 49.0144C161.214 20.3978 137.869 49.0144 137.869 49.0144C137.869 49.0144 137.827 50.0303 132.583 49.861C126.028 49.6493 129.411 37.1613 132.583 28.2716C135.755 19.3818 133.851 32.9281 136.6 38.8546C139.349 44.7812 149.499 24.0383 145.058 18.3235C140.618 12.6086 145.734 38.8546 132.583 14.9369C119.432 -8.98086 179.737 2.02555 169.164 6.04712C158.592 10.0687 144.213 24.0383 179.737 24.0383C215.261 24.0383 197.499 204.374 176.354 248.188C155.208 292.001 137.869 273.587 126.028 258.559C114.186 243.531 153.728 112.301 150.345 108.491C146.962 104.681 131.525 154.422 126.028 163.311C120.53 172.201 51.8071 209.877 51.8071 172.836C51.8071 135.795 94.5209 116.746 88.3887 127.329C82.2565 137.912 23.5442 205.614 107.208 160.56C183.333 119.565 42.2917 98.5431 29.6044 102.988C16.9172 107.433 10.9964 209.877 42.2917 154.422C73.5869 98.9664 37.4282 192.097 29.6044 191.039C21.7806 189.981 10.9964 126.694 20.7233 183.208C30.4502 239.721 10.9964 206.49 32.9877 236.97C54.9789 267.449 46.9437 219.402 29.6044 209.877C12.2652 200.352 97.2698 193.791 111.437 196.542C125.605 199.294 116.512 253.056 107.208 258.559C97.9042 264.062 111.437 231.043 107.208 216.438C102.979 201.834 76.7587 207.76 51.8071 209.877C26.8555 211.994 64.0715 253.056 85.0054 248.188C105.939 243.319 87.3315 226.598 76.7587 225.963C66.186 225.328 88.8116 238.24 81.1993 236.97C73.5869 235.7 35.948 220.248 81.1993 216.438C126.451 212.629 96.0011 277.185 64.0715 258.559C32.1419 239.933 27.4899 257.712 10.9964 253.056C-5.49702 248.399 0.212251 24.0383 4.86425 20.0168C9.51624 15.9953 35.948 19.3818 46.9437 24.0383C57.9393 28.6949 49.904 49.0144 42.2917 38.8546C34.6793 28.6949 21.992 24.0383 10.9964 38.8546C0.00079542 53.6709 144.213 104.258 144.213 91.77C144.213 79.282 25.1639 27.2133 68.7235 24.0383C112.283 20.8634 137.869 24.6733 111.437 38.8546C85.0054 53.0359 144.213 58.3275 159.649 82.4569C175.085 106.586 116.089 260.041 144.213 253.056C172.336 246.071 179.103 84.7851 169.164 49.0144Z" fill="#6B6B6B"/>
</svg>
