<svg width="200" height="282" viewBox="0 0 200 282" fill="none" xmlns="http://www.w3.org/2000/svg">
<path d="M39.1228 165.089C112.43 210.141 93.8074 109.268 75.3329 53.1993C94.7927 50.7293 159.987 53.1993 135.437 43.5664C110.886 33.9335 172.139 11.9507 186.673 11.9507C201.206 11.9507 186.673 34.9215 172.139 31.2165C157.606 27.5116 158.838 58.8802 161.794 84.8149C164.75 110.75 147.014 130.932 140.363 121.617C133.712 112.303 175.095 112.167 120.657 115.937C87.6492 118.222 186.673 68.5131 140.363 58.8802C94.0538 49.2473 94.7927 186.331 108.341 156.444C121.889 126.557 175.095 125.351 154.158 138.907C133.22 152.464 111.543 175.216 120.657 196.211C129.771 217.205 125.337 240.482 91.0978 228.814C56.8583 217.147 83.9543 201.892 94.7927 196.211C105.631 190.53 96.7633 248.327 108.341 199.175C119.918 150.022 39.1228 209.548 56.612 213.5C74.1012 217.452 75.3329 255.984 46.2663 228.814C17.1996 201.645 32.7183 203.868 56.612 199.175C80.5057 194.482 28.038 161.878 10.7951 156.444C-6.4478 151.01 7.59287 189.542 13.2584 175.216C18.9239 160.89 39.1228 178.18 13.2584 193C-12.606 207.819 6.60755 242.152 10.7951 231.284C14.9827 220.416 55.873 223.133 13.2584 248.327C-29.3562 273.521 82.4764 271.298 59.5679 252.773C36.6595 234.248 166.967 234.495 166.967 255.984C166.967 277.473 155.882 262.9 129.771 258.948C103.66 254.996 88.1419 270.063 135.437 279.449C182.732 288.835 211.798 262.9 175.095 231.284C138.393 199.669 149.488 185.837 182.239 206.338C214.99 226.838 177.559 167.559 158.838 180.897C140.117 194.235 111.543 189.048 166.967 156.444C222.39 123.84 149.231 142.118 182.239 101.117C215.247 60.1152 147.014 107.292 186.673 47.5183C226.331 -12.255 170.415 -4.84506 111.543 11.9507C52.6707 28.7466 -52.511 108.774 39.1228 165.089Z" fill="#6B6B6B"/>
</svg>
