<svg width="200" height="280" viewBox="0 0 200 280" fill="none" xmlns="http://www.w3.org/2000/svg">
<path d="M191.525 280L5.81114 5.7981L3.87409 9.42192L11.3801 21.5013L5.81114 19.5686L21.3075 42.0362L11.3801 35.9965V51.9413L16.2228 46.6264L28.8136 51.2166L24.9395 56.2899L41.6465 66.9198L40.9201 74.6506L79.661 121.035L91.0412 140.121L79.661 144.953L94.9153 158.965L87.4092 164.521L79.661 152.442L54.9637 172.252L67.3123 168.628L69.7337 194.236L84.7458 172.252H100.969L79.661 187.23L92.4939 260.673L116.707 263.089L123.729 256.324L130.751 263.089H148.668L154.479 269.37L152.3 258.982H141.404L118.16 251.734H98.5472L108.475 241.346L99.7579 229.508L115.739 223.71V231.682L127.603 223.71L128.329 215.496L120.097 206.557L105.327 212.355L120.097 218.154L99.7579 219.603L107.264 187.23L120.097 182.882L125.666 192.304H120.097H113.559L111.622 204.383L130.751 196.894L140.436 212.355L135.109 206.557L129.782 204.383L130.751 219.603H146.247V231.682L143.584 227.334L113.559 243.762L154.479 245.453L141.404 251.734L165.86 256.324L158.596 263.089L172.155 266.713L170.46 271.786H176.998L180.63 276.618L179.661 280H167.554H154.479L144.31 276.618L146.247 266.713H135.109L120.097 269.37L135.109 273.96L133.656 280H111.622L123.729 276.618L116.707 269.37H109.927H91.0412H76.7554H72.8814L79.661 258.982L72.8814 256.324L66.586 258.982L72.8814 266.713L67.3123 273.96L64.891 276.618H56.9007L54.9637 271.786H61.7433L67.3123 266.713L62.954 260.673V256.324L64.891 251.734L71.9128 246.903V241.346L70.4601 229.508L69.7337 223.71L62.954 219.603L59.0799 223.71L67.3123 229.508L69.7337 237.964L64.891 246.903L62.954 239.896L64.891 234.582L59.0799 227.334L47.2155 234.582V246.903L52.0581 234.582L61.7433 251.734L56.9007 269.37L16.2228 260.673L45.7627 256.324L16.2228 251.734L45.7627 239.896L21.3075 234.582L49.1525 227.334C43.5028 226.126 32.6392 223.71 34.3826 223.71C36.1259 223.71 50.1211 220.006 56.9007 218.154L40.9201 215.496L56.9007 209.698L45.7627 207.765L59.0799 201.726H45.7627L56.9007 196.894H49.1525L52.0581 192.304L59.0799 187.23L56.9007 182.882L44.0678 172.252H36.8039L32.2034 173.943L28.8136 177.084L34.3826 181.674L44.0678 182.882V188.921L40.9201 196.894L28.8136 199.068L34.3826 187.23L16.2228 192.304L32.2034 212.355L11.3801 206.557L5.81114 156.307L32.2034 151.475L24.9395 155.099L16.2228 156.307V182.882L32.2034 164.521L44.0678 161.139L45.7627 165.729L61.7433 163.313L59.0799 151.475L32.2034 161.139L44.0678 150.751L80.8717 136.497L76.7554 129.008H70.4601L64.891 125.626L56.9007 121.035H44.0678L28.8136 102.675L76.7554 125.626L28.8136 62.3296L19.3705 74.6506L40.9201 81.1734L62.954 117.412L24.9395 87.9379L19.3705 121.035L76.7554 132.632L11.3801 152.442L3.87409 101.467L19.3705 53.6324L5.81114 61.1217L0 2.17429H32.2034L16.2228 8.21398L32.2034 25.6083L28.8136 8.21398L52.0581 25.6083V17.3943L49.1525 5.7981L62.954 9.42192L67.3123 3.62381L82.8087 4.83175L79.661 2.17429L85.7143 0L87.4092 3.62381L90.3148 2.17429L120.581 0L133.656 5.7981L138.257 2.17429L161.017 4.83175L140.436 7.48921L154.479 11.113L139.952 16.428L131.719 9.42192L125.424 4.83175L115.739 5.7981L118.644 14.0121L121.792 9.42192L130.751 12.0794V18.6022L123.729 19.5686L125.424 15.4616L118.16 19.5686L113.075 28.9905V23.6756L103.39 28.9905L105.327 33.0975L100.969 40.5867V34.7886L94.9153 42.0362L98.5472 40.5867L95.6416 51.9413L94.9153 49.0423L91.0412 43.0026V51.2166H82.8087L87.4092 49.0423L85.7143 42.0362L84.7458 46.6264L80.8717 40.5867L92.4939 38.8956L98.5472 33.0975L96.6102 31.4064V28.0242L103.39 25.6083L111.622 19.5686L116.707 13.0457L112.349 12.0794L113.075 7.48921H105.327V13.0457H99.7579L103.39 11.113L99.7579 7.48921L96.6102 11.113L92.4939 9.42192L94.9153 7.48921L91.0412 5.7981L88.862 9.42192L90.3148 13.0457H85.7143L84.7458 7.48921L82.8087 9.42192V13.0457L76.7554 8.21398L64.891 13.0457L67.3123 28.9905L61.7433 38.8956V27.0578L49.1525 49.0423L67.3123 61.1217L64.891 64.2623L72.8814 74.6506L85.7143 69.094L94.9153 64.2623H79.661L64.891 46.6264L76.0291 26.333L72.8814 16.428L109.927 15.4616C96.7716 25.8499 70.3148 46.9646 69.7337 48.3175C69.1525 49.6704 90.3148 58.2226 100.969 62.3296L109.927 28.9905L108.475 56.2899L140.436 46.6264L143.584 28.9905L128.329 43.0026L118.16 25.6083C132.607 22.2261 161.404 15.6549 161.017 16.428C160.63 17.201 155.044 29.7958 152.3 35.9965L172.155 27.0578H162.228L173.366 18.6022L168.765 11.113L185.472 4.83175L181.356 15.4616L176.998 28.0242L164.649 38.8956L180.63 34.7886L186.199 18.6022V49.0423L180.63 53.6324L183.051 46.6264L173.366 42.0362L163.196 70.302L161.501 64.2623L158.596 53.6324L163.196 40.5867L62.954 87.9379L111.622 72.9594L67.3123 87.9379L111.622 74.6506L70.4601 89.1458L115.739 77.5496L76.7554 95.1855L88.862 97.843L79.661 104.849L82.8087 113.305L90.3148 110.889L85.7143 104.849L107.264 95.9103L98.5472 95.1855L115.739 90.3538L118.16 84.0725L133.656 81.1734L123.729 87.9379L157.143 80.4487L118.16 70.302L159.806 77.5496L148.668 49.0423L164.649 77.5496L176.998 51.2166L170.46 77.5496L186.199 53.6324L176.029 72.9594H184.504L181.356 77.5496L179.661 85.522L186.199 77.5496L183.051 107.023L182.324 102.675L180.63 107.99L176.998 107.023L178.45 102.675L182.324 95.1855L179.661 89.1458H172.155L179.661 95.9103L172.155 93.736L152.3 97.843L144.068 95.9103L161.501 93.736L176.029 81.1734L99.7579 101.467L163.196 87.9379L98.5472 107.023L94.9153 102.675L91.0412 117.412L105.327 113.305L100.969 110.889L109.927 106.299V110.889L131.719 107.023L115.739 106.299L176.998 97.843L90.3148 121.035L118.16 124.418L175.061 104.849L115.739 136.497L98.5472 129.008L129.782 180.949L109.927 140.121L176.998 251.734V245.453L175.061 239.896L172.155 234.582V227.334L167.554 219.603L159.806 215.496L154.479 207.765L152.3 204.383L154.479 196.894L153.511 192.304L158.596 187.23L154.479 181.674L161.501 177.084L154.479 172.252L163.196 164.521L148.184 169.594L152.3 199.068L133.656 173.943V168.628L116.707 143.745L152.3 132.632L127.603 138.43L165.86 121.035L164.649 114.996H184.504L181.356 124.418L183.051 116.445L176.029 125.626L173.366 121.035L161.501 129.008L178.45 132.632L179.661 148.818L178.45 168.628L170.702 166.937L176.998 163.313H170.702V156.307L175.061 151.475V144.953L164.649 148.818V140.121L152.3 147.61L158.596 145.677L161.501 151.475L154.479 155.099L156.416 150.751L148.668 152.442L152.3 155.099L148.668 158.965L146.247 154.133L144.31 155.099L144.068 161.139L141.404 164.521L138.257 166.937V161.139L141.404 157.274L139.952 150.751L133.656 152.442H138.257L135.109 154.133H130.751L127.603 145.677L133.656 143.745L130.751 148.818H146.247L168.765 135.047L123.729 143.745L148.668 192.304L144.068 168.628L170.46 148.818L159.806 196.894L156.416 201.726L163.196 204.383L160.533 207.765L167.554 206.557H172.155L168.765 212.355V207.765L163.196 212.355L170.46 218.154L176.998 200.276L173.366 204.383L164.649 200.276L168.765 179.5L172.155 173.943L178.45 172.252L181.356 179.5L176.998 177.084L168.765 187.23L172.155 192.304L170.46 200.276L176.029 196.169V182.882H181.356V196.169L176.029 212.355V227.334L181.356 251.734L191.525 9.42192L187.409 223.71L200 5.7981L191.525 280Z" fill="#6B6B6B"/>
</svg>
