<svg width="200" height="282" viewBox="0 0 200 282" fill="none" xmlns="http://www.w3.org/2000/svg">
<path d="M102.414 145.619C84.4557 119.58 46.7598 64.4668 39.6442 52.3318L72.9352 130.956L19.8221 67.5005L63.2783 145.619L9.65693 229.047H35.0699L16.0102 239.917L30.7497 267.221L52.3507 219.44L63.2783 225.76L47.2681 247.502L85.1334 219.44L35.0699 276.575L114.358 239.917L95.8069 225.76L122.745 219.44L114.358 229.047L127.827 239.917L145.87 235.872L156.544 229.047L172.554 247.502L179.67 255.592V239.917L167.471 229.047H179.67V213.12L127.827 225.76L159.085 156.49L167.471 188.85L138.755 213.12L187.294 197.951V173.681L179.67 188.85L172.554 162.305L176.366 149.411L172.554 145.619L176.366 135.507H183.482L192.376 120.844L196.188 107.445L187.294 117.051L176.366 114.018L179.67 124.13L159.085 107.445V96.0681L156.544 72.5567L150.953 57.3881V82.1635L136.181 67.5005L145.87 63.7083L138.755 48.2869L132.402 63.7083L127.827 45.2531L105.464 57.3881L47.2681 41.9666L52.3507 33.8766L63.2783 41.9666L108.005 37.6688L127.827 27.3036L95.8069 12.8934L69.1233 20.9833L108.005 30.5901L16.0102 27.3036L58.1957 16.6855L42.9479 8.34276V16.6855H19.8221L35.0699 8.34276H5.08259L19.8221 0L147.141 12.8934L127.827 8.34276L172.554 0L145.87 45.2531L172.554 30.5901H162.389L172.554 12.8934L200 76.3489L167.471 60.4218L172.554 48.2869L179.67 60.4218V37.6688L162.389 41.9666L167.471 107.445H187.294V87.2197L172.554 98.5962L167.471 67.5005L200 82.1635V124.13L179.67 168.625L200 162.305V255.592L196.188 213.12L187.294 276.575L150.953 267.221H172.554L162.389 239.917L95.8069 255.592L127.827 258.878H147.141L127.827 267.221L108.005 263.429H85.1334L58.1957 267.221L179.67 281.884H5.08259L0 225.76L24.3964 117.051L9.65693 107.445L24.3964 82.1635L9.65693 76.3489L16.0102 48.2869L35.0699 37.6688L101.144 117.051L127.827 168.625L143.837 149.411L147.141 120.844L127.827 145.619L118.17 114.018L52.3507 52.3318L127.827 72.5567L167.471 124.13C154.257 153.793 125.133 213.12 114.358 213.12H24.3964L102.414 145.619Z" fill="#6B6B6B"/>
</svg>
